# Blender v2.75 (sub 0) OBJ File: ''
# www.blender.org
mtllib glass.mtl
o Mesh23_Group_29_1_Group7_Model
v 5.336180 2.943640 -3.063129
v 6.158690 2.183351 -3.139330
v 5.292190 3.049850 -3.139329
v 6.140470 2.139350 -3.063130
v 5.336180 1.416651 -3.063130
v 6.631420 2.139350 -3.063130
v 6.631420 1.416651 -3.063130
v 6.675410 1.372651 -3.139330
v 5.292190 1.372651 -3.139330
v 6.675410 2.183351 -3.139330
v 6.344050 0.377915 -2.427600
v 4.990790 0.377915 -2.427600
v 6.555970 0.889533 -2.939220
v 6.311090 0.462905 -2.404830
v 6.497240 0.912305 -2.854230
v 5.235670 0.912305 -2.854230
v 5.202710 0.889533 -2.939220
v 5.049520 0.462905 -2.404830
v 8.608660 2.139350 -1.381330
v 7.158530 2.183351 -2.939220
v 7.135760 2.139350 -2.854230
v 8.693650 2.183350 -1.404100
v 8.608660 1.416650 -1.381330
v 8.693650 1.372650 -1.404100
v 7.158530 1.372651 -2.939220
v 7.135760 1.416651 -2.854230
v 6.340060 3.302000 -1.646489
v 7.444910 3.378200 -0.603849
v 7.400920 3.302000 -0.585626
v 6.358280 3.378200 -1.690479
v 5.901070 3.378200 -1.690479
v 5.945070 3.302000 -1.646489
v 5.945070 3.302000 1.667191
v 6.340060 3.302000 1.667191
v 7.400920 3.302000 0.606336
v 7.444910 3.378200 0.624559
v 6.358280 3.378200 1.711191
v 5.901070 3.378200 1.711191
v 4.760700 0.177800 -1.690480
v 7.444910 0.177800 -0.346299
v 4.760700 0.177800 -0.346299
v 6.358280 0.177800 -1.690480
v 6.340060 0.254000 -1.646490
v 4.804700 0.254000 -1.646490
v 4.804700 0.254000 -0.390293
v 7.400920 0.254000 -0.390293
v 7.444910 0.177800 -0.603850
v 7.400920 0.254000 -0.585627
v 6.886720 0.344210 -2.217270
v 7.971700 0.344210 -1.132280
v 6.896770 0.462905 -2.162230
v 7.097190 0.894799 -2.689750
v 7.082920 0.912305 -2.611630
v 7.916660 0.462905 -1.142340
v 8.444180 0.894799 -1.342760
v 8.366060 0.912305 -1.328490
v 8.141360 0.687605 -1.235410
v 6.896770 0.462906 2.182940
v 7.971700 0.344210 1.152990
v 6.886720 0.344210 2.237970
v 7.916660 0.462906 1.163050
v 7.082920 0.912305 2.632340
v 8.366060 0.912305 1.349190
v 7.097190 0.894799 2.710460
v 8.444180 0.894799 1.363470
v 8.141360 0.687605 1.256120
v 6.555970 0.889532 2.959930
v 4.990790 0.377915 2.448310
v 6.344050 0.377915 2.448310
v 5.202710 0.889532 2.959930
v 5.235670 0.912305 2.874940
v 6.497240 0.912305 2.874940
v 6.311090 0.462906 2.425540
v 5.049520 0.462906 2.425540
v 8.817560 2.139350 -0.876985
v 8.817560 1.416650 0.897693
v 8.817560 2.139350 0.897693
v 8.817560 1.416650 -0.876985
v 8.893760 2.183350 -0.920979
v 8.893760 1.372650 -0.920979
v 8.893760 2.183350 0.941687
v 8.893760 1.372650 0.941687
v 7.135760 2.139349 2.874940
v 7.158530 2.183350 2.959930
v 8.608660 2.139350 1.402040
v 7.158530 1.372650 2.959930
v 7.135760 1.416650 2.874940
v 8.608660 1.416650 1.402040
v 8.693650 2.183350 1.424810
v 8.693650 1.372650 1.424810
v 6.886720 3.211790 2.237971
v 7.971700 3.211790 1.152990
v 6.896770 3.093090 2.182940
v 7.097190 2.661200 2.710460
v 7.082920 2.643699 2.632340
v 7.916660 3.093090 1.163051
v 8.444180 2.661200 1.363470
v 8.366060 2.643700 1.349190
v 8.141360 2.868400 1.256120
v 8.193830 3.222100 0.627392
v 8.159260 3.093090 0.577367
v 8.669920 2.660110 0.805845
v 8.193830 3.222100 -0.606682
v 8.669920 2.660110 -0.785138
v 8.608660 2.643700 -0.742807
v 8.608660 2.643700 0.763515
v 8.159260 3.093090 -0.556660
v 5.292190 3.049850 3.160040
v 6.158690 2.183350 3.160040
v 5.336180 2.943640 3.083840
v 6.675410 1.372650 3.160040
v 5.292190 1.372650 3.160040
v 5.336180 1.416650 3.083840
v 6.140470 2.139349 3.083840
v 6.631420 2.139349 3.083840
v 6.675410 2.183350 3.160040
v 6.631420 1.416650 3.083840
v 6.896770 3.093100 -2.162230
v 7.971700 3.211790 -1.132280
v 6.886720 3.211791 -2.217269
v 7.916660 3.093100 -1.142339
v 7.082920 2.643700 -2.611629
v 8.366060 2.643700 -1.328490
v 7.097190 2.661201 -2.689749
v 8.444180 2.661200 -1.342759
v 8.141360 2.868400 -1.235409
v 8.669920 0.895890 0.805845
v 8.159260 0.462906 0.577367
v 8.193830 0.333903 0.627391
v 8.608660 0.912305 0.763515
v 8.608660 0.912305 -0.742807
v 8.669920 0.895890 -0.785138
v 8.193830 0.333903 -0.606683
v 8.159260 0.462905 -0.556660
v 4.760700 0.177800 0.367006
v 7.444910 0.177800 0.367006
v 4.760700 0.177800 1.711190
v 7.400920 0.254000 0.411001
v 4.804700 0.254000 0.411001
v 4.804700 0.254000 1.667190
v 6.340060 0.254000 1.667190
v 6.358280 0.177800 1.711190
v 7.444910 0.177800 0.624558
v 7.400920 0.254000 0.606335
vt 1.095440 48.075001
vt 23.899599 10.212700
vt 2.323790 53.364300
vt 21.122101 8.021820
vt 1.732040 1.732050
vt 33.396900 30.184999
vt 1.732040 61.849899
vt 52.725601 30.184999
vt 52.725601 1.732050
vt 1.732040 0.866026
vt 54.457699 -2.598080
vt 52.725601 0.866026
vt 0.000000 -2.598080
vt 0.866018 61.849899
vt -2.598080 0.000000
vt 0.866018 1.732050
vt -2.598080 66.031403
vt -0.000002 66.031403
vt -54.457699 0.000000
vt -0.000000 0.000000
vt -34.114300 31.917101
vt -54.457699 31.917101
vt 26.363100 30.184999
vt 29.827200 -0.000000
vt 29.827200 31.917101
vt 26.363100 1.732050
vt 34.114300 18.556601
vt 52.725601 15.092500
vt 54.457699 18.556601
vt 33.396900 15.092500
vt 53.277901 -14.242800
vt -0.000000 -14.242800
vt 61.621201 14.242800
vt -53.277901 5.213190
vt -51.980400 8.677300
vt -0.000003 5.213200
vt -10.005800 -6.720110
vt -11.457100 -10.122700
vt -28.876200 11.271400
vt -32.939999 10.359700
vt 59.308998 8.677350
vt 61.621201 5.213250
vt 9.640810 8.677340
vt 8.343330 5.213240
vt -1.779370 21.419800
vt -19.679001 -2.258180
vt -5.325170 22.473700
vt 8.343330 14.242800
vt -21.048000 1.675230
vt -2.312150 -12.510800
vt -51.980301 -12.510800
vt -9.640810 12.510800
vt -2.312150 8.677310
vt -59.308998 12.510800
vt 41.003700 50.602901
vt -42.735901 54.067001
vt -41.003899 50.602901
vt 42.735802 54.067001
vt 56.012199 1.732060
vt 59.476200 31.917101
vt 56.012199 30.184999
vt 59.476200 -0.000000
vt 41.003700 -34.644299
vt -42.735901 -38.108398
vt 42.735802 -38.108398
vt -41.003899 -34.644299
vt 41.003700 30.184999
vt -41.003899 1.732060
vt 41.003700 1.732060
vt -41.003899 30.184999
vt -56.012299 30.184999
vt -59.476398 0.000013
vt -56.012299 1.732060
vt -59.476398 31.917101
vt -42.735802 31.917101
vt 42.735901 0.000013
vt 42.735901 31.917101
vt -42.735802 0.000000
vt 81.252998 52.847401
vt 21.469400 56.311501
vt 22.186800 52.847401
vt 81.970398 56.311501
vt -17.282801 66.096001
vt -0.000022 69.560097
vt -18.000299 69.560097
vt -1.732100 66.096001
vt -17.282801 132.192001
vt -1.732080 1.732050
vt -1.732080 132.192001
vt -17.282801 1.732050
vt -59.048901 90.425797
vt -59.048901 43.498100
vt 91.143204 32.988300
vt 43.498100 29.524200
vt 90.425797 29.524200
vt 42.780701 32.988300
vt 18.000299 133.923996
vt 60.780899 42.780701
vt 60.780899 91.143204
vt 18.000299 -0.000000
vt 0.000000 133.923996
vt -133.923996 2.598070
vt -1.732050 -0.866047
vt -0.000005 2.598070
vt -132.192001 -0.866048
vt 1.732080 -0.866027
vt 18.000299 2.598080
vt 17.282801 -0.866028
vt 13.445500 5.498050
vt 73.229103 8.962150
vt 12.728100 8.962160
vt 72.511703 5.498050
vt -0.000000 52.920502
vt -105.677002 -0.000000
vt -62.896801 52.920502
vt -0.000002 -26.460300
vt -62.179298 -22.996201
vt -62.896801 -26.460300
vt -1.732040 -22.996201
vt -52.920502 -0.000000
vt -1.732060 3.464100
vt -51.188400 3.464100
vt 103.945000 3.464110
vt 1.732040 3.464110
vt 105.677002 0.000000
vt 10.139800 -52.838402
vt 1.732020 -49.374298
vt -0.000035 -52.838402
vt 9.422330 -49.374298
vt -67.555298 -40.947701
vt -7.771700 -37.483601
vt -66.837799 -37.483601
vt -7.054280 -40.947701
vt -105.677002 10.139800
vt 62.179298 51.188400
vt 103.945000 1.732060
vt 103.945000 9.422370
vt 1.732040 51.188400
vt 1.732040 1.732060
vt -13.153400 3.404390
vt -73.562698 3.404370
vt -14.965500 8.242280
vt 13.153400 -8.673360
vt 5.859430 20.160101
vt 73.562599 -8.673430
vt 1.819840 22.783701
vt -18.147600 0.741161
vt -1.304040 23.484501
vt -20.174500 5.493060
vt -14.965400 -6.881900
vt -71.750504 -6.881950
vt -7.636750 18.139601
vt -71.750603 8.242280
vt -28.206699 -12.554900
vt -48.174198 9.487660
vt -26.179899 -7.802980
vt 80.856598 20.160101
vt 80.856598 -0.049431
vt 5.859430 -0.049426
vt 79.079300 2.613440
vt 7.636750 2.613450
vt -79.079300 18.139601
vt -75.414902 5.628820
vt -45.050400 10.188500
vt -35.615101 1.192750
vt -71.601303 30.184999
vt -1.732040 1.732040
vt -1.732040 30.184999
vt -71.601303 1.732040
vt -39.264599 31.917101
vt -35.800499 1.732040
vt -35.800499 30.184999
vt -39.264599 0.000000
vt 0.000000 31.917101
vt 73.333298 0.000000
vt 73.333298 31.917101
vt 2.598080 31.917101
vt -0.866020 1.732040
vt 2.598080 0.000000
vt -0.866020 30.184999
vt -0.000000 18.556601
vt -71.601303 15.092500
vt -1.732040 15.092500
vt -73.333298 18.556601
vt -1.732040 0.866019
vt -73.333298 -2.598080
vt -71.601303 0.866019
vt -2.605550 1.209260
vt -4.808420 6.373800
vt 16.991100 23.708099
vt -7.025750 -0.352194
vt -55.611401 -0.352214
vt -8.995190 4.905800
vt 55.611401 0.879632
vt 7.025760 0.879656
vt 62.637100 29.877399
vt 0.000007 29.877399
vt 62.637100 -13.693100
vt -0.000001 -13.693100
vt 60.970600 -11.196200
vt 1.666560 -11.196200
vt -1.666560 28.612801
vt -8.995190 3.591290
vt -60.970600 28.612801
vt 14.062000 24.365299
vt -53.641899 3.591290
vt -47.544899 14.761200
vt -28.674500 -3.230280
vt -50.474098 14.104000
vt -30.877399 -8.394840
vt -53.641899 4.905800
vn 0.612400 0.612400 0.500000
vn 0.000000 -0.000000 1.000000
vn 0.000000 -0.866000 0.500100
vn -0.866000 -0.000000 0.500000
vn 0.000000 0.000000 -1.000000
vn 0.866000 0.000000 0.500000
vn 0.000000 0.866000 0.500100
vn 0.000000 -0.707100 -0.707100
vn 0.000000 -0.258800 0.965900
vn 0.831100 0.181400 0.525700
vn 0.000000 0.965900 -0.258800
vn -0.831100 0.525700 0.181400
vn 0.000000 0.707100 0.707100
vn -0.353600 0.866000 0.353600
vn 0.258800 0.000000 0.965900
vn -0.353600 -0.866000 0.353600
vn -0.707100 0.000000 0.707100
vn -0.965900 0.000000 -0.258800
vn 0.707100 0.000000 -0.707100
vn 0.612400 -0.500000 -0.612400
vn 0.612400 -0.499900 -0.612400
vn 0.000000 -0.500000 -0.866000
vn 0.000000 -1.000000 -0.000000
vn 0.866000 -0.500000 0.000000
vn 0.000000 1.000000 0.000000
vn -0.866000 -0.500000 -0.000000
vn -0.866000 -0.500100 0.000000
vn 0.000000 -0.500100 0.866000
vn 0.612400 -0.500000 0.612400
vn 0.000000 0.500000 -0.866000
vn -0.866000 0.500000 0.000000
vn 0.000000 0.500000 0.866000
vn 0.866000 0.500000 0.000000
vn 0.612400 0.500000 -0.612400
vn -0.683000 -0.258900 0.683000
vn 0.531600 -0.659400 -0.531600
vn -0.959400 0.181500 -0.215900
vn -0.959400 0.181400 -0.216000
vn -0.500000 0.707100 0.500000
vn -0.683000 -0.258800 0.683000
vn 0.215900 0.181500 0.959400
vn 0.183000 0.965900 -0.183000
vn -0.638400 0.767800 0.053100
vn -0.764800 0.644000 0.020100
vn 0.380000 0.121000 0.917000
vn 0.045600 0.132500 0.990100
vn 0.216000 0.181400 0.959400
vn -0.683000 -0.258800 -0.683000
vn -0.500000 0.707100 -0.500000
vn 0.183000 0.965900 0.183000
vn 0.531600 -0.659400 0.531600
vn -0.959400 0.181500 0.215900
vn -0.959400 0.181400 0.216000
vn 0.215900 0.181400 -0.959400
vn 0.216000 0.181400 -0.959400
vn -0.947300 -0.095900 -0.305800
vn 0.163800 -0.655400 -0.737300
vn 0.989700 -0.020600 0.141500
vn -0.681000 -0.643500 -0.349300
vn 0.000000 -0.707100 0.707100
vn 0.000000 0.965900 0.258800
vn 0.831100 0.181400 -0.525700
vn 0.000000 -0.258800 -0.965900
vn -0.831100 0.525700 -0.181400
vn 0.000000 0.707100 -0.707100
vn -1.000000 -0.000000 0.000000
vn -0.500000 -0.000000 -0.866000
vn 1.000000 -0.000000 0.000000
vn -0.500000 0.000000 0.866000
vn -0.500100 0.866000 0.000000
vn -0.500000 0.866000 0.000000
vn -0.500000 -0.866000 0.000000
vn -0.500100 -0.866000 -0.000000
vn -0.353600 0.866000 -0.353600
vn -0.965900 0.000000 0.258800
vn -0.353600 -0.866000 -0.353600
vn -0.707100 0.000000 -0.707100
vn 0.258800 0.000000 -0.965900
vn 0.707100 0.000000 0.707100
vn -0.683000 0.258800 -0.683000
vn 0.531600 0.659400 0.531600
vn -0.959400 -0.181500 0.215900
vn -0.959400 -0.181400 0.216000
vn -0.500000 -0.707100 -0.500000
vn 0.216000 -0.181400 -0.959400
vn 0.182900 -0.965900 0.182900
vn 0.183000 -0.965900 0.183000
vn 0.501600 -0.307200 -0.808700
vn 0.404100 0.101000 -0.909100
vn 0.522600 -0.402800 -0.751400
vn 0.080300 0.228100 -0.970300
vn -0.525700 -0.181400 0.831100
vn -0.965900 0.258800 0.000000
vn 0.763000 0.646400 0.000000
vn 0.258800 -0.965900 0.000000
vn -0.707100 -0.707100 -0.000000
vn -0.525700 -0.181400 -0.831100
vn 0.612400 0.612400 -0.500000
vn 0.000000 -0.866000 -0.500000
vn -0.866000 0.000000 -0.500000
vn 0.000000 0.866000 -0.500100
vn 0.866000 0.000000 -0.500000
vn 0.000000 -0.866000 -0.500100
vn -0.683000 0.258900 0.683000
vn -0.683000 0.258800 0.683000
vn -0.500000 -0.707100 0.500000
vn 0.183000 -0.965900 -0.183000
vn 0.531600 0.659400 -0.531600
vn -0.959400 -0.181500 -0.215900
vn -0.959400 -0.181400 -0.216000
vn 0.215900 -0.181500 0.959400
vn 0.216000 -0.181400 0.959400
vn 0.272100 -0.337900 0.901000
vn -0.743000 -0.664800 0.078200
vn -0.801900 -0.560400 0.207400
vn 0.158600 -0.344600 0.925200
vn -0.525700 0.181400 0.831100
vn 0.258800 0.965900 0.000000
vn 0.763000 -0.646400 -0.000000
vn -0.965900 -0.258800 -0.000000
vn -0.707100 0.707100 -0.000000
vn -0.525700 0.181400 -0.831100
vn -0.866000 0.500100 0.000000
vn 0.000000 0.500100 0.866000
vn 0.612400 0.500000 0.612400
usemtl CoolGray5
s off
f 1/1/1 2/2/1 3/3/1
f 2/2/1 1/1/1 4/4/1
f 5/5/2 4/6/2 1/7/2
f 5/5/2 6/8/2 4/6/2
f 6/8/2 5/5/2 7/9/2
f 5/10/3 8/11/3 7/12/3
f 8/11/3 5/10/3 9/13/3
f 1/14/4 9/15/4 5/16/4
f 9/15/4 1/14/4 3/17/4
f 3/18/5 8/19/5 9/20/5
f 8/19/5 3/18/5 2/21/5
f 10/22/5 8/19/5 2/21/5
f 6/23/6 8/24/6 10/25/6
f 8/24/6 6/23/6 7/26/6
f 2/27/7 6/28/7 10/29/7
f 6/28/7 2/27/7 4/30/7
f 11/31/8 12/32/8 13/33/8
f 11/34/9 14/35/9 12/36/9
f 14/37/10 11/38/10 15/39/10
f 13/40/10 15/39/10 11/38/10
f 15/41/11 13/42/11 16/43/11
f 17/44/11 16/43/11 13/42/11
f 17/45/12 12/46/12 16/47/12
f 17/48/8 13/33/8 12/32/8
f 18/49/12 16/47/12 12/46/12
f 18/50/13 14/51/13 16/52/13
f 18/53/9 12/36/9 14/35/9
f 15/54/13 16/52/13 14/51/13
f 19/55/14 20/56/14 21/57/14
f 20/56/14 19/55/14 22/58/14
f 23/59/15 22/60/15 19/61/15
f 22/60/15 23/59/15 24/62/15
f 23/63/16 25/64/16 24/65/16
f 25/64/16 23/63/16 26/66/16
f 19/67/17 26/68/17 23/69/17
f 26/68/17 19/67/17 21/70/17
f 21/71/18 25/72/18 26/73/18
f 25/72/18 21/71/18 20/74/18
f 22/75/19 25/76/19 20/77/19
f 25/76/19 22/75/19 24/78/19
f 27/79/20 28/80/20 29/81/20
f 28/80/21 27/79/21 30/82/21
f 27/83/22 31/84/22 30/85/22
f 31/84/22 27/83/22 32/86/22
f 27/87/23 33/88/23 32/89/23
f 33/88/23 27/87/23 34/90/23
f 34/90/23 27/87/23 29/91/23
f 34/90/23 29/91/23 35/92/23
f 28/93/24 35/94/24 29/95/24
f 35/94/24 28/93/24 36/96/24
f 30/97/25 36/98/25 28/99/25
f 30/97/25 37/100/25 36/98/25
f 30/97/25 38/20/25 37/100/25
f 38/20/25 30/97/25 31/101/25
f 31/102/26 33/103/26 38/104/26
f 33/103/27 31/102/27 32/105/27
f 33/106/28 37/107/28 38/104/28
f 37/107/28 33/106/28 34/108/28
f 34/109/29 36/110/29 37/111/29
f 36/110/29 34/109/29 35/112/29
f 39/113/23 40/114/23 41/20/23
f 40/114/23 39/113/23 42/115/23
f 39/116/30 43/117/30 42/118/30
f 43/117/30 39/116/30 44/119/30
f 39/120/31 45/121/31 44/122/31
f 45/121/31 39/120/31 41/20/31
f 41/20/32 46/123/32 45/124/32
f 46/123/32 41/20/32 40/125/32
f 47/126/33 46/127/33 40/128/33
f 46/127/33 47/126/33 48/129/33
f 47/130/34 43/131/34 48/132/34
f 43/131/34 47/130/34 42/133/34
f 40/114/23 42/115/23 47/134/23
f 43/135/25 46/136/25 48/137/25
f 44/138/25 46/136/25 43/135/25
f 46/136/25 44/138/25 45/139/25
f 49/140/35 50/141/35 51/142/35
f 49/143/36 52/144/36 50/145/36
f 52/146/37 49/147/37 53/148/37
f 51/149/38 53/148/38 49/147/38
f 51/150/39 54/151/39 53/152/39
f 54/153/40 51/142/40 50/141/40
f 50/154/41 55/155/41 54/156/41
f 55/157/36 50/145/36 52/144/36
f 55/158/42 52/159/42 56/160/42
f 53/161/42 56/160/42 52/159/42
f 56/162/39 53/152/39 54/151/39
f 57/163/43 56/162/44 54/151/44
f 56/164/41 57/165/45 55/155/41
f 57/165/46 54/156/47 55/155/47
f 58/142/48 59/141/48 60/140/48
f 59/141/48 58/142/48 61/153/48
f 62/152/49 61/151/49 58/150/49
f 61/151/49 62/152/49 63/162/49
f 64/159/50 63/160/50 62/161/50
f 63/160/50 64/159/50 65/158/50
f 64/144/51 59/145/51 65/157/51
f 59/145/51 64/144/51 60/143/51
f 62/148/52 60/147/52 64/146/52
f 60/147/53 62/148/53 58/149/53
f 61/156/54 65/155/54 59/154/54
f 65/155/55 61/156/55 66/165/56
f 61/151/57 63/162/57 66/163/58
f 65/155/55 66/165/59 63/164/55
f 67/33/60 68/32/60 69/31/60
f 68/32/60 67/33/60 70/48/60
f 67/42/61 71/43/61 70/44/61
f 71/43/61 67/42/61 72/41/61
f 69/38/62 72/39/62 67/40/62
f 72/39/62 69/38/62 73/37/62
f 68/36/63 73/35/63 69/34/63
f 73/35/63 68/36/63 74/53/63
f 68/46/64 71/47/64 74/49/64
f 71/47/64 68/46/64 70/45/64
f 71/52/65 73/51/65 74/50/65
f 73/51/65 71/52/65 72/54/65
f 75/166/66 76/167/66 77/168/66
f 76/167/66 75/166/66 78/169/66
f 79/170/67 78/171/67 75/172/67
f 78/171/67 79/170/67 80/173/67
f 81/174/68 80/175/68 79/176/68
f 80/175/68 81/174/68 82/20/68
f 81/177/69 76/178/69 82/179/69
f 76/178/69 81/177/69 77/180/69
f 81/181/70 75/182/70 77/183/70
f 75/182/71 81/181/71 79/184/71
f 76/185/72 80/186/72 82/13/72
f 80/186/73 76/185/73 78/187/73
f 83/57/74 84/56/74 85/55/74
f 84/74/75 83/71/75 86/72/75
f 87/73/75 86/72/75 83/71/75
f 87/66/76 88/63/76 86/64/76
f 88/69/77 87/68/77 85/67/77
f 83/70/77 85/67/77 87/68/77
f 85/61/78 89/60/78 88/59/78
f 89/58/74 85/55/74 84/56/74
f 84/77/79 86/76/79 89/75/79
f 90/78/79 89/75/79 86/76/79
f 90/62/78 88/59/78 89/60/78
f 90/65/76 86/64/76 88/63/76
f 91/140/80 92/141/80 93/142/80
f 91/143/81 94/144/81 92/145/81
f 94/146/82 91/147/82 95/148/82
f 93/149/83 95/148/83 91/147/83
f 93/150/84 96/151/84 95/152/84
f 96/153/80 93/142/80 92/141/80
f 92/154/85 97/155/85 96/156/85
f 97/157/81 92/145/81 94/144/81
f 97/158/86 94/159/86 98/160/86
f 95/161/87 98/160/87 94/159/87
f 98/162/84 95/152/84 96/151/84
f 99/163/88 98/162/89 96/151/89
f 98/164/85 99/165/90 97/155/85
f 99/165/91 96/156/85 97/155/85
f 100/188/92 101/189/92 102/190/92
f 100/191/93 103/192/93 101/193/93
f 103/194/94 100/195/94 104/196/94
f 102/197/94 104/196/94 100/195/94
f 104/198/95 102/199/95 105/200/95
f 106/201/95 105/200/95 102/199/95
f 106/202/96 101/203/96 105/204/96
f 106/205/92 102/190/92 101/189/92
f 107/206/96 105/204/96 101/203/96
f 105/207/97 107/208/97 104/209/97
f 103/210/97 104/209/97 107/208/97
f 107/211/93 101/193/93 103/192/93
f 108/3/98 109/2/98 110/1/98
f 109/21/2 108/18/2 111/19/2
f 112/20/2 111/19/2 108/18/2
f 112/13/99 113/10/99 111/11/99
f 113/16/100 112/15/100 110/14/100
f 108/17/100 110/14/100 112/15/100
f 110/7/5 114/6/5 113/5/5
f 114/4/98 110/1/98 109/2/98
f 114/30/101 109/27/101 115/28/101
f 116/29/101 115/28/101 109/27/101
f 116/25/102 111/24/102 115/23/102
f 109/21/2 111/19/2 116/22/2
f 117/26/102 115/23/102 111/24/102
f 117/9/5 113/5/5 115/8/5
f 117/12/103 111/11/103 113/10/103
f 114/6/5 115/8/5 113/5/5
f 118/142/104 119/141/104 120/140/104
f 119/141/105 118/142/105 121/153/105
f 122/152/106 121/151/106 118/150/106
f 121/151/106 122/152/106 123/162/106
f 124/159/107 123/160/107 122/161/107
f 123/160/107 124/159/107 125/158/107
f 124/144/108 119/145/108 125/157/108
f 119/145/108 124/144/108 120/143/108
f 122/148/109 120/147/109 124/146/109
f 120/147/110 122/148/110 118/149/110
f 121/156/111 125/155/111 119/154/111
f 125/155/112 121/156/112 126/165/113
f 121/151/114 123/162/114 126/163/115
f 125/155/111 126/165/116 123/164/111
f 127/190/117 128/189/117 129/188/117
f 128/189/117 127/190/117 130/205/117
f 127/199/118 131/200/118 130/201/118
f 131/200/118 127/199/118 132/198/118
f 129/195/119 132/196/119 127/197/119
f 132/196/119 129/195/119 133/194/119
f 128/193/120 133/192/120 129/191/120
f 133/192/120 128/193/120 134/211/120
f 128/203/121 131/204/121 134/206/121
f 131/204/121 128/203/121 130/202/121
f 132/209/122 134/208/122 131/207/122
f 134/208/122 132/209/122 133/210/122
f 135/20/23 136/114/23 137/113/23
f 136/125/30 135/20/30 138/123/30
f 139/124/30 138/123/30 135/20/30
f 139/139/25 140/138/25 138/136/25
f 140/122/31 139/121/31 137/120/31
f 135/20/123 137/120/123 139/121/123
f 140/119/124 137/116/124 141/117/124
f 142/118/124 141/117/124 137/116/124
f 142/133/125 143/130/125 141/131/125
f 143/134/23 142/115/23 136/114/23
f 142/115/23 137/113/23 136/114/23
f 136/128/33 138/127/33 143/126/33
f 144/129/33 143/126/33 138/127/33
f 144/132/125 141/131/125 143/130/125
f 144/137/25 138/136/25 141/135/25
f 141/135/25 138/136/25 140/138/25
